<svg width="40" height="41" viewBox="0 0 40 41" fill="none" xmlns="http://www.w3.org/2000/svg">
<g id="bxs:camera">
<path id="Vector" d="M20 15.1667C17.29 15.1667 15 17.4567 15 20.1667C15 22.8767 17.29 25.1667 20 25.1667C22.71 25.1667 25 22.8767 25 20.1667C25 17.4567 22.71 15.1667 20 15.1667Z" fill="#999999" fill-opacity="0.6"/>
<path id="Vector_2" d="M33.3333 8.5H29.0233L24.5116 3.98834C24.3571 3.83326 24.1734 3.71028 23.9712 3.62648C23.769 3.54267 23.5522 3.49968 23.3333 3.5H16.6666C16.4477 3.49968 16.2309 3.54267 16.0286 3.62648C15.8264 3.71028 15.6428 3.83326 15.4883 3.98834L10.9766 8.5H6.66659C4.82825 8.5 3.33325 9.995 3.33325 11.8333V30.1667C3.33325 32.005 4.82825 33.5 6.66659 33.5H33.3333C35.1716 33.5 36.6666 32.005 36.6666 30.1667V11.8333C36.6666 9.995 35.1716 8.5 33.3333 8.5ZM19.9999 28.5C15.4833 28.5 11.6666 24.6833 11.6666 20.1667C11.6666 15.65 15.4833 11.8333 19.9999 11.8333C24.5166 11.8333 28.3333 15.65 28.3333 20.1667C28.3333 24.6833 24.5166 28.5 19.9999 28.5Z" fill="#999999" fill-opacity="0.6"/>
</g>
</svg>
