<svg width="19" height="18" viewBox="0 0 19 18" fill="none" xmlns="http://www.w3.org/2000/svg">
<g clip-path="url(#clip0_11_2008)">
<path d="M16.25 1.125C16.5484 1.125 16.8345 1.24353 17.0455 1.4545C17.2565 1.66548 17.375 1.95163 17.375 2.25V11.25C17.375 11.5484 17.2565 11.8345 17.0455 12.0455C16.8345 12.2565 16.5484 12.375 16.25 12.375H13.4375C13.0882 12.375 12.7437 12.4563 12.4313 12.6125C12.1188 12.7688 11.8471 12.9956 11.6375 13.275L9.5 16.1246L7.3625 13.275C7.15292 12.9956 6.88116 12.7688 6.56873 12.6125C6.25631 12.4563 5.9118 12.375 5.5625 12.375H2.75C2.45163 12.375 2.16548 12.2565 1.9545 12.0455C1.74353 11.8345 1.625 11.5484 1.625 11.25V2.25C1.625 1.95163 1.74353 1.66548 1.9545 1.4545C2.16548 1.24353 2.45163 1.125 2.75 1.125H16.25ZM2.75 0C2.15326 0 1.58097 0.237053 1.15901 0.65901C0.737053 1.08097 0.5 1.65326 0.5 2.25L0.5 11.25C0.5 11.8467 0.737053 12.419 1.15901 12.841C1.58097 13.2629 2.15326 13.5 2.75 13.5H5.5625C5.73715 13.5 5.9094 13.5407 6.06562 13.6188C6.22183 13.6969 6.35771 13.8103 6.4625 13.95L8.6 16.7996C8.70479 16.9393 8.84067 17.0528 8.99688 17.1309C9.1531 17.209 9.32535 17.2496 9.5 17.2496C9.67465 17.2496 9.8469 17.209 10.0031 17.1309C10.1593 17.0528 10.2952 16.9393 10.4 16.7996L12.5375 13.95C12.6423 13.8103 12.7782 13.6969 12.9344 13.6188C13.0906 13.5407 13.2628 13.5 13.4375 13.5H16.25C16.8467 13.5 17.419 13.2629 17.841 12.841C18.2629 12.419 18.5 11.8467 18.5 11.25V2.25C18.5 1.65326 18.2629 1.08097 17.841 0.65901C17.419 0.237053 16.8467 0 16.25 0L2.75 0Z" fill="black"/>
<path d="M6.125 6.75C6.125 7.04837 6.00647 7.33452 5.79549 7.54549C5.58452 7.75647 5.29837 7.875 5 7.875C4.70163 7.875 4.41548 7.75647 4.2045 7.54549C3.99353 7.33452 3.875 7.04837 3.875 6.75C3.875 6.45163 3.99353 6.16548 4.2045 5.95451C4.41548 5.74353 4.70163 5.625 5 5.625C5.29837 5.625 5.58452 5.74353 5.79549 5.95451C6.00647 6.16548 6.125 6.45163 6.125 6.75ZM10.625 6.75C10.625 7.04837 10.5065 7.33452 10.2955 7.54549C10.0845 7.75647 9.79837 7.875 9.5 7.875C9.20163 7.875 8.91548 7.75647 8.7045 7.54549C8.49353 7.33452 8.375 7.04837 8.375 6.75C8.375 6.45163 8.49353 6.16548 8.7045 5.95451C8.91548 5.74353 9.20163 5.625 9.5 5.625C9.79837 5.625 10.0845 5.74353 10.2955 5.95451C10.5065 6.16548 10.625 6.45163 10.625 6.75ZM15.125 6.75C15.125 7.04837 15.0065 7.33452 14.7955 7.54549C14.5845 7.75647 14.2984 7.875 14 7.875C13.7016 7.875 13.4155 7.75647 13.2045 7.54549C12.9935 7.33452 12.875 7.04837 12.875 6.75C12.875 6.45163 12.9935 6.16548 13.2045 5.95451C13.4155 5.74353 13.7016 5.625 14 5.625C14.2984 5.625 14.5845 5.74353 14.7955 5.95451C15.0065 6.16548 15.125 6.45163 15.125 6.75Z" fill="black"/>
</g>
<defs>
<clipPath id="clip0_11_2008">
<rect width="18" height="18" fill="white" transform="translate(0.5)"/>
</clipPath>
</defs>
</svg>
