<svg width="22" height="21" viewBox="0 0 22 21" fill="none" xmlns="http://www.w3.org/2000/svg">
<path d="M9.74882 19.1263L9.74811 19.1257C6.9061 16.4445 4.58636 14.2524 2.9713 12.1967C1.36226 10.1487 0.5 8.29348 0.5 6.29428C0.5 3.01595 2.95603 0.5 6.05 0.5C7.80534 0.5 9.50414 1.35284 10.6143 2.69856L11 3.1661L11.3857 2.69856C12.4959 1.35284 14.1947 0.5 15.95 0.5C19.044 0.5 21.5 3.01595 21.5 6.29428C21.5 8.29348 20.6377 10.1487 19.0287 12.1967C17.4136 14.2524 15.0939 16.4445 12.2519 19.1257L12.2512 19.1264L11 20.3113L9.74882 19.1263Z" fill="white" stroke="#FF0000"/>
</svg>
