<svg width="18" height="18" viewBox="0 0 18 18" fill="none" xmlns="http://www.w3.org/2000/svg">
<path d="M13.5 13.5C13.8125 13.5 14.0782 13.3907 14.2972 13.1722C14.5162 12.9537 14.6255 12.688 14.625 12.375C14.6245 12.062 14.5153 11.7965 14.2972 11.5785C14.0792 11.3605 13.8135 11.251 13.5 11.25C13.1865 11.249 12.921 11.3585 12.7035 11.5785C12.486 11.7985 12.3765 12.064 12.375 12.375C12.3735 12.686 12.483 12.9517 12.7035 13.1722C12.924 13.3927 13.1895 13.502 13.5 13.5ZM13.5 15.75C13.875 15.75 14.225 15.6625 14.55 15.4875C14.875 15.3125 15.1438 15.0687 15.3563 14.7562C15.0688 14.5812 14.7687 14.453 14.4562 14.3715C14.1438 14.29 13.825 14.2495 13.5 14.25C13.175 14.2505 12.8562 14.291 12.5438 14.3715C12.2313 14.452 11.9312 14.5802 11.6437 14.7562C11.8562 15.0687 12.125 15.3125 12.45 15.4875C12.775 15.6625 13.125 15.75 13.5 15.75ZM6.75 6H11.25V4.5C11.25 3.875 11.0312 3.34375 10.5938 2.90625C10.1562 2.46875 9.625 2.25 9 2.25C8.375 2.25 7.84375 2.46875 7.40625 2.90625C6.96875 3.34375 6.75 3.875 6.75 4.5V6ZM9.1875 16.5H4.5C4.0875 16.5 3.7345 16.3532 3.441 16.0597C3.1475 15.7662 3.0005 15.413 3 15V7.5C3 7.0875 3.147 6.7345 3.441 6.441C3.735 6.1475 4.088 6.0005 4.5 6H5.25V4.5C5.25 3.4625 5.61575 2.57825 6.34725 1.84725C7.07875 1.11625 7.963 0.750501 9 0.750001C10.037 0.749501 10.9215 1.11525 11.6535 1.84725C12.3855 2.57925 12.751 3.4635 12.75 4.5V6H13.5C13.9125 6 14.2657 6.147 14.5597 6.441C14.8538 6.735 15.0005 7.088 15 7.5V8.475C14.775 8.4 14.5407 8.34375 14.2972 8.30625C14.0538 8.26875 13.788 8.25 13.5 8.25V7.5H4.5V15H8.475C8.575 15.3 8.675 15.5595 8.775 15.7785C8.875 15.9975 9.0125 16.238 9.1875 16.5ZM13.5 17.25C12.4625 17.25 11.5782 16.8842 10.8472 16.1527C10.1163 15.4212 9.7505 14.537 9.75 13.5C9.7495 12.463 10.1153 11.5787 10.8472 10.8472C11.5793 10.1158 12.4635 9.75 13.5 9.75C14.5365 9.75 15.421 10.1158 16.1535 10.8472C16.886 11.5787 17.2515 12.463 17.25 13.5C17.2485 14.537 16.8828 15.4215 16.1528 16.1535C15.4228 16.8855 14.5385 17.251 13.5 17.25Z" fill="black"/>
</svg>
