<svg width="19" height="19" viewBox="0 0 19 19" fill="none" xmlns="http://www.w3.org/2000/svg">
<path d="M7.39583 0.625C9.19157 0.625 10.9138 1.33835 12.1835 2.60813C13.4533 3.87791 14.1667 5.6001 14.1667 7.39583C14.1667 9.07292 13.5521 10.6146 12.5417 11.8021L12.8229 12.0833H13.6458L18.8542 17.2917L17.2917 18.8542L12.0833 13.6458V12.8229L11.8021 12.5417C10.5733 13.5901 9.01109 14.1662 7.39583 14.1667C5.6001 14.1667 3.87791 13.4533 2.60813 12.1835C1.33835 10.9138 0.625 9.19157 0.625 7.39583C0.625 5.6001 1.33835 3.87791 2.60813 2.60813C3.87791 1.33835 5.6001 0.625 7.39583 0.625ZM7.39583 2.70833C4.79167 2.70833 2.70833 4.79167 2.70833 7.39583C2.70833 10 4.79167 12.0833 7.39583 12.0833C10 12.0833 12.0833 10 12.0833 7.39583C12.0833 4.79167 10 2.70833 7.39583 2.70833Z" fill="#4C89FF"/>
</svg>
