<svg width="15" height="16" viewBox="0 0 15 16" fill="none" xmlns="http://www.w3.org/2000/svg">
<path d="M8.04 7.09999C7.68 7.00999 7.32 6.82999 7.05 6.55999C6.78 6.46999 6.69 6.19999 6.69 6.01999C6.69 5.83999 6.78 5.56999 6.96 5.47999C7.23 5.29999 7.5 5.11999 7.77 5.20999C8.31 5.20999 8.76 5.47999 9.03 5.83999L9.84 4.75999C9.57 4.48999 9.3 4.30999 9.03 4.12999C8.76 3.94999 8.4 3.85999 8.04 3.85999V2.59999H6.96V3.85999C6.51 3.94999 6.06 4.21999 5.7 4.57999C5.34 5.02999 5.07 5.56999 5.16 6.10999C5.16 6.64999 5.34 7.18999 5.7 7.54999C6.15 7.99999 6.78 8.26999 7.32 8.53999C7.59 8.62999 7.95 8.80999 8.22 8.98999C8.4 9.16999 8.49 9.43999 8.49 9.70999C8.49 9.97999 8.4 10.25 8.22 10.52C7.95 10.79 7.59 10.88 7.32 10.88C6.96 10.88 6.51 10.79 6.24 10.52C5.97 10.34 5.7 10.07 5.52 9.79999L4.62 10.79C4.89 11.15 5.16 11.42 5.52 11.69C5.97 11.96 6.51 12.23 7.05 12.23V13.4H8.04V12.05C8.58 11.96 9.03 11.69 9.39 11.33C9.84 10.88 10 10.13 10 9.5C10 8.96 9.93 8.35999 9.48 7.99999C9.03 7.54999 8.58 7.27999 8.04 7.09999ZM7.5 0.799988C3.54 0.799988 0.300003 4.03999 0.300003 7.99999C0.300003 11.96 3.54 15.2 7.5 15.2C11.46 15.2 14.7 11.96 14.7 7.99999C14.7 4.03999 11.46 0.799988 7.5 0.799988ZM7.5 14.21C4.08 14.21 1.29 11.42 1.29 7.99999C1.29 4.57999 4.08 1.78999 7.5 1.78999C10.92 1.78999 13.71 4.57999 13.71 7.99999C13.71 11.42 10.92 14.21 7.5 14.21Z" fill="black"/>
</svg>
